<?xml version="1.0" encoding="utf-8" standalone="no"?>
<!DOCTYPE svg PUBLIC "-//W3C//DTD SVG 1.1//EN"
  "http://www.w3.org/Graphics/SVG/1.1/DTD/svg11.dtd">
<svg height="725.670625pt" version="1.1" viewBox="0 0 1469.953125 725.670625" width="1469.953125pt" xmlns="http://www.w3.org/2000/svg" xmlns:xlink="http://www.w3.org/1999/xlink">
 <metadata>
  <rdf:RDF xmlns:cc="http://creativecommons.org/ns#" xmlns:dc="http://purl.org/dc/elements/1.1/" xmlns:rdf="http://www.w3.org/1999/02/22-rdf-syntax-ns#">
   <cc:Work>
    <dc:type rdf:resource="http://purl.org/dc/dcmitype/StillImage"/>
    <dc:date>2022-08-13T16:58:13.044053</dc:date>
    <dc:format>image/svg+xml</dc:format>
    <dc:creator>
     <cc:Agent>
      <dc:title>Matplotlib v3.4.3, https://matplotlib.org/</dc:title>
     </cc:Agent>
    </dc:creator>
   </cc:Work>
  </rdf:RDF>
 </metadata>
 <defs>
  <style type="text/css">*{stroke-linecap:butt;stroke-linejoin:round;}</style>
 </defs>
 <g id="figure_1">
  <g id="patch_1">
   <path d="M 0 725.670625 
L 1469.953125 725.670625 
L 1469.953125 0 
L 0 0 
z
" style="fill:#ffffff;"/>
  </g>
  <g id="axes_1">
   <g id="patch_2">
    <path d="M 74.953125 665.28 
L 1469.953125 665.28 
L 1469.953125 -0 
L 74.953125 -0 
z
" style="fill:#ffffff;"/>
   </g>
   <g id="patch_3">
    <path clip-path="url(#p1feb9e0f22)" d="M 138.362216 665.28 
L 172.407365 665.28 
L 172.407365 31.68 
L 138.362216 31.68 
z
" style="fill:#9370db;"/>
   </g>
   <g id="patch_4">
    <path clip-path="url(#p1feb9e0f22)" d="M 180.918653 665.28 
L 214.963802 665.28 
L 214.963802 31.68 
L 180.918653 31.68 
z
" style="fill:#9370db;"/>
   </g>
   <g id="patch_5">
    <path clip-path="url(#p1feb9e0f22)" d="M 223.47509 665.28 
L 257.520239 665.28 
L 257.520239 242.88 
L 223.47509 242.88 
z
" style="fill:#9370db;"/>
   </g>
   <g id="patch_6">
    <path clip-path="url(#p1feb9e0f22)" d="M 266.031526 665.28 
L 300.076676 665.28 
L 300.076676 348.48 
L 266.031526 348.48 
z
" style="fill:#9370db;"/>
   </g>
   <g id="patch_7">
    <path clip-path="url(#p1feb9e0f22)" d="M 308.587963 665.28 
L 342.633113 665.28 
L 342.633113 285.12 
L 308.587963 285.12 
z
" style="fill:#9370db;"/>
   </g>
   <g id="patch_8">
    <path clip-path="url(#p1feb9e0f22)" d="M 351.1444 665.28 
L 385.18955 665.28 
L 385.18955 242.88 
L 351.1444 242.88 
z
" style="fill:#9370db;"/>
   </g>
   <g id="patch_9">
    <path clip-path="url(#p1feb9e0f22)" d="M 393.700837 665.28 
L 427.745987 665.28 
L 427.745987 212.708571 
L 393.700837 212.708571 
z
" style="fill:#9370db;"/>
   </g>
   <g id="patch_10">
    <path clip-path="url(#p1feb9e0f22)" d="M 436.257274 665.28 
L 470.302423 665.28 
L 470.302423 190.08 
L 436.257274 190.08 
z
" style="fill:#9370db;"/>
   </g>
   <g id="patch_11">
    <path clip-path="url(#p1feb9e0f22)" d="M 478.813711 665.28 
L 512.85886 665.28 
L 512.85886 172.48 
L 478.813711 172.48 
z
" style="fill:#9370db;"/>
   </g>
   <g id="patch_12">
    <path clip-path="url(#p1feb9e0f22)" d="M 521.370148 665.28 
L 555.415297 665.28 
L 555.415297 158.4 
L 521.370148 158.4 
z
" style="fill:#9370db;"/>
   </g>
   <g id="patch_13">
    <path clip-path="url(#p1feb9e0f22)" d="M 563.926584 665.28 
L 597.971734 665.28 
L 597.971734 146.88 
L 563.926584 146.88 
z
" style="fill:#9370db;"/>
   </g>
   <g id="patch_14">
    <path clip-path="url(#p1feb9e0f22)" d="M 606.483021 665.28 
L 640.528171 665.28 
L 640.528171 137.28 
L 606.483021 137.28 
z
" style="fill:#9370db;"/>
   </g>
   <g id="patch_15">
    <path clip-path="url(#p1feb9e0f22)" d="M 649.039458 665.28 
L 683.084608 665.28 
L 683.084608 129.156923 
L 649.039458 129.156923 
z
" style="fill:#9370db;"/>
   </g>
   <g id="patch_16">
    <path clip-path="url(#p1feb9e0f22)" d="M 691.595895 665.28 
L 725.641044 665.28 
L 725.641044 122.194286 
L 691.595895 122.194286 
z
" style="fill:#9370db;"/>
   </g>
   <g id="patch_17">
    <path clip-path="url(#p1feb9e0f22)" d="M 734.152332 665.28 
L 768.197481 665.28 
L 768.197481 116.16 
L 734.152332 116.16 
z
" style="fill:#9370db;"/>
   </g>
   <g id="patch_18">
    <path clip-path="url(#p1feb9e0f22)" d="M 776.708769 665.28 
L 810.753918 665.28 
L 810.753918 110.88 
L 776.708769 110.88 
z
" style="fill:#9370db;"/>
   </g>
   <g id="patch_19">
    <path clip-path="url(#p1feb9e0f22)" d="M 819.265206 665.28 
L 853.310355 665.28 
L 853.310355 106.221176 
L 819.265206 106.221176 
z
" style="fill:#9370db;"/>
   </g>
   <g id="patch_20">
    <path clip-path="url(#p1feb9e0f22)" d="M 861.821642 665.28 
L 895.866792 665.28 
L 895.866792 102.08 
L 861.821642 102.08 
z
" style="fill:#9370db;"/>
   </g>
   <g id="patch_21">
    <path clip-path="url(#p1feb9e0f22)" d="M 904.378079 665.28 
L 938.423229 665.28 
L 938.423229 98.374737 
L 904.378079 98.374737 
z
" style="fill:#9370db;"/>
   </g>
   <g id="patch_22">
    <path clip-path="url(#p1feb9e0f22)" d="M 946.934516 665.28 
L 980.979666 665.28 
L 980.979666 95.04 
L 946.934516 95.04 
z
" style="fill:#9370db;"/>
   </g>
   <g id="patch_23">
    <path clip-path="url(#p1feb9e0f22)" d="M 989.490953 665.28 
L 1023.536102 665.28 
L 1023.536102 122.194286 
L 989.490953 122.194286 
z
" style="fill:#9370db;"/>
   </g>
   <g id="patch_24">
    <path clip-path="url(#p1feb9e0f22)" d="M 1032.04739 665.28 
L 1066.092539 665.28 
L 1066.092539 118.08 
L 1032.04739 118.08 
z
" style="fill:#9370db;"/>
   </g>
   <g id="patch_25">
    <path clip-path="url(#p1feb9e0f22)" d="M 1074.603827 665.28 
L 1108.648976 665.28 
L 1108.648976 114.323478 
L 1074.603827 114.323478 
z
" style="fill:#9370db;"/>
   </g>
   <g id="patch_26">
    <path clip-path="url(#p1feb9e0f22)" d="M 1117.160263 665.28 
L 1151.205413 665.28 
L 1151.205413 110.88 
L 1117.160263 110.88 
z
" style="fill:#9370db;"/>
   </g>
   <g id="patch_27">
    <path clip-path="url(#p1feb9e0f22)" d="M 1159.7167 665.28 
L 1193.76185 665.28 
L 1193.76185 107.712 
L 1159.7167 107.712 
z
" style="fill:#9370db;"/>
   </g>
   <g id="patch_28">
    <path clip-path="url(#p1feb9e0f22)" d="M 1202.273137 665.28 
L 1236.318287 665.28 
L 1236.318287 104.787692 
L 1202.273137 104.787692 
z
" style="fill:#9370db;"/>
   </g>
   <g id="patch_29">
    <path clip-path="url(#p1feb9e0f22)" d="M 1244.829574 665.28 
L 1278.874724 665.28 
L 1278.874724 102.08 
L 1244.829574 102.08 
z
" style="fill:#9370db;"/>
   </g>
   <g id="patch_30">
    <path clip-path="url(#p1feb9e0f22)" d="M 1287.386011 665.28 
L 1321.43116 665.28 
L 1321.43116 99.565714 
L 1287.386011 99.565714 
z
" style="fill:#9370db;"/>
   </g>
   <g id="patch_31">
    <path clip-path="url(#p1feb9e0f22)" d="M 1329.942448 665.28 
L 1363.987597 665.28 
L 1363.987597 97.224828 
L 1329.942448 97.224828 
z
" style="fill:#9370db;"/>
   </g>
   <g id="patch_32">
    <path clip-path="url(#p1feb9e0f22)" d="M 1372.498885 665.28 
L 1406.544034 665.28 
L 1406.544034 116.16 
L 1372.498885 116.16 
z
" style="fill:#9370db;"/>
   </g>
   <g id="matplotlib.axis_1">
    <g id="xtick_1">
     <g id="line2d_1">
      <defs>
       <path d="M 0 0 
L 0 3.5 
" id="m4be9f0e174" style="stroke:#000000;stroke-width:0.8;"/>
      </defs>
      <g>
       <use style="stroke:#000000;stroke-width:0.8;" x="112.828354" xlink:href="#m4be9f0e174" y="665.28"/>
      </g>
     </g>
     <g id="text_1">
      <!-- 0 -->
      <g transform="translate(104.875229 691.276094)scale(0.25 -0.25)">
       <defs>
        <path d="M 2034 4250 
Q 1547 4250 1301 3770 
Q 1056 3291 1056 2328 
Q 1056 1369 1301 889 
Q 1547 409 2034 409 
Q 2525 409 2770 889 
Q 3016 1369 3016 2328 
Q 3016 3291 2770 3770 
Q 2525 4250 2034 4250 
z
M 2034 4750 
Q 2819 4750 3233 4129 
Q 3647 3509 3647 2328 
Q 3647 1150 3233 529 
Q 2819 -91 2034 -91 
Q 1250 -91 836 529 
Q 422 1150 422 2328 
Q 422 3509 836 4129 
Q 1250 4750 2034 4750 
z
" id="DejaVuSans-30" transform="scale(0.015625)"/>
       </defs>
       <use xlink:href="#DejaVuSans-30"/>
      </g>
     </g>
    </g>
    <g id="xtick_2">
     <g id="line2d_2">
      <g>
       <use style="stroke:#000000;stroke-width:0.8;" x="325.610538" xlink:href="#m4be9f0e174" y="665.28"/>
      </g>
     </g>
     <g id="text_2">
      <!-- 5 -->
      <g transform="translate(317.657413 691.276094)scale(0.25 -0.25)">
       <defs>
        <path d="M 691 4666 
L 3169 4666 
L 3169 4134 
L 1269 4134 
L 1269 2991 
Q 1406 3038 1543 3061 
Q 1681 3084 1819 3084 
Q 2600 3084 3056 2656 
Q 3513 2228 3513 1497 
Q 3513 744 3044 326 
Q 2575 -91 1722 -91 
Q 1428 -91 1123 -41 
Q 819 9 494 109 
L 494 744 
Q 775 591 1075 516 
Q 1375 441 1709 441 
Q 2250 441 2565 725 
Q 2881 1009 2881 1497 
Q 2881 1984 2565 2268 
Q 2250 2553 1709 2553 
Q 1456 2553 1204 2497 
Q 953 2441 691 2322 
L 691 4666 
z
" id="DejaVuSans-35" transform="scale(0.015625)"/>
       </defs>
       <use xlink:href="#DejaVuSans-35"/>
      </g>
     </g>
    </g>
    <g id="xtick_3">
     <g id="line2d_3">
      <g>
       <use style="stroke:#000000;stroke-width:0.8;" x="538.392722" xlink:href="#m4be9f0e174" y="665.28"/>
      </g>
     </g>
     <g id="text_3">
      <!-- 10 -->
      <g transform="translate(522.486472 691.276094)scale(0.25 -0.25)">
       <defs>
        <path d="M 794 531 
L 1825 531 
L 1825 4091 
L 703 3866 
L 703 4441 
L 1819 4666 
L 2450 4666 
L 2450 531 
L 3481 531 
L 3481 0 
L 794 0 
L 794 531 
z
" id="DejaVuSans-31" transform="scale(0.015625)"/>
       </defs>
       <use xlink:href="#DejaVuSans-31"/>
       <use x="63.623047" xlink:href="#DejaVuSans-30"/>
      </g>
     </g>
    </g>
    <g id="xtick_4">
     <g id="line2d_4">
      <g>
       <use style="stroke:#000000;stroke-width:0.8;" x="751.174907" xlink:href="#m4be9f0e174" y="665.28"/>
      </g>
     </g>
     <g id="text_4">
      <!-- 15 -->
      <g transform="translate(735.268657 691.276094)scale(0.25 -0.25)">
       <use xlink:href="#DejaVuSans-31"/>
       <use x="63.623047" xlink:href="#DejaVuSans-35"/>
      </g>
     </g>
    </g>
    <g id="xtick_5">
     <g id="line2d_5">
      <g>
       <use style="stroke:#000000;stroke-width:0.8;" x="963.957091" xlink:href="#m4be9f0e174" y="665.28"/>
      </g>
     </g>
     <g id="text_5">
      <!-- 20 -->
      <g transform="translate(948.050841 691.276094)scale(0.25 -0.25)">
       <defs>
        <path d="M 1228 531 
L 3431 531 
L 3431 0 
L 469 0 
L 469 531 
Q 828 903 1448 1529 
Q 2069 2156 2228 2338 
Q 2531 2678 2651 2914 
Q 2772 3150 2772 3378 
Q 2772 3750 2511 3984 
Q 2250 4219 1831 4219 
Q 1534 4219 1204 4116 
Q 875 4013 500 3803 
L 500 4441 
Q 881 4594 1212 4672 
Q 1544 4750 1819 4750 
Q 2544 4750 2975 4387 
Q 3406 4025 3406 3419 
Q 3406 3131 3298 2873 
Q 3191 2616 2906 2266 
Q 2828 2175 2409 1742 
Q 1991 1309 1228 531 
z
" id="DejaVuSans-32" transform="scale(0.015625)"/>
       </defs>
       <use xlink:href="#DejaVuSans-32"/>
       <use x="63.623047" xlink:href="#DejaVuSans-30"/>
      </g>
     </g>
    </g>
    <g id="xtick_6">
     <g id="line2d_6">
      <g>
       <use style="stroke:#000000;stroke-width:0.8;" x="1176.739275" xlink:href="#m4be9f0e174" y="665.28"/>
      </g>
     </g>
     <g id="text_6">
      <!-- 25 -->
      <g transform="translate(1160.833025 691.276094)scale(0.25 -0.25)">
       <use xlink:href="#DejaVuSans-32"/>
       <use x="63.623047" xlink:href="#DejaVuSans-35"/>
      </g>
     </g>
    </g>
    <g id="xtick_7">
     <g id="line2d_7">
      <g>
       <use style="stroke:#000000;stroke-width:0.8;" x="1389.521459" xlink:href="#m4be9f0e174" y="665.28"/>
      </g>
     </g>
     <g id="text_7">
      <!-- 30 -->
      <g transform="translate(1373.615209 691.276094)scale(0.25 -0.25)">
       <defs>
        <path d="M 2597 2516 
Q 3050 2419 3304 2112 
Q 3559 1806 3559 1356 
Q 3559 666 3084 287 
Q 2609 -91 1734 -91 
Q 1441 -91 1130 -33 
Q 819 25 488 141 
L 488 750 
Q 750 597 1062 519 
Q 1375 441 1716 441 
Q 2309 441 2620 675 
Q 2931 909 2931 1356 
Q 2931 1769 2642 2001 
Q 2353 2234 1838 2234 
L 1294 2234 
L 1294 2753 
L 1863 2753 
Q 2328 2753 2575 2939 
Q 2822 3125 2822 3475 
Q 2822 3834 2567 4026 
Q 2313 4219 1838 4219 
Q 1578 4219 1281 4162 
Q 984 4106 628 3988 
L 628 4550 
Q 988 4650 1302 4700 
Q 1616 4750 1894 4750 
Q 2613 4750 3031 4423 
Q 3450 4097 3450 3541 
Q 3450 3153 3228 2886 
Q 3006 2619 2597 2516 
z
" id="DejaVuSans-33" transform="scale(0.015625)"/>
       </defs>
       <use xlink:href="#DejaVuSans-33"/>
       <use x="63.623047" xlink:href="#DejaVuSans-30"/>
      </g>
     </g>
    </g>
    <g id="text_8">
     <!-- Nº de episódios -->
     <g transform="translate(674.810547 720.471406)scale(0.25 -0.25)">
      <defs>
       <path d="M 628 4666 
L 1478 4666 
L 3547 763 
L 3547 4666 
L 4159 4666 
L 4159 0 
L 3309 0 
L 1241 3903 
L 1241 0 
L 628 0 
L 628 4666 
z
" id="DejaVuSans-4e" transform="scale(0.015625)"/>
       <path d="M 434 1850 
L 2584 1850 
L 2584 1466 
L 434 1466 
L 434 1850 
z
M 1509 4750 
Q 2069 4750 2391 4404 
Q 2713 4059 2713 3463 
Q 2713 2866 2391 2523 
Q 2069 2181 1509 2181 
Q 950 2181 625 2525 
Q 300 2869 300 3463 
Q 300 4059 625 4404 
Q 950 4750 1509 4750 
z
M 1509 4391 
Q 1181 4391 984 4139 
Q 788 3888 788 3463 
Q 788 3047 986 2797 
Q 1184 2547 1509 2547 
Q 1838 2547 2033 2797 
Q 2228 3047 2228 3463 
Q 2228 3891 2034 4141 
Q 1841 4391 1509 4391 
z
" id="DejaVuSans-ba" transform="scale(0.015625)"/>
       <path id="DejaVuSans-20" transform="scale(0.015625)"/>
       <path d="M 2906 2969 
L 2906 4863 
L 3481 4863 
L 3481 0 
L 2906 0 
L 2906 525 
Q 2725 213 2448 61 
Q 2172 -91 1784 -91 
Q 1150 -91 751 415 
Q 353 922 353 1747 
Q 353 2572 751 3078 
Q 1150 3584 1784 3584 
Q 2172 3584 2448 3432 
Q 2725 3281 2906 2969 
z
M 947 1747 
Q 947 1113 1208 752 
Q 1469 391 1925 391 
Q 2381 391 2643 752 
Q 2906 1113 2906 1747 
Q 2906 2381 2643 2742 
Q 2381 3103 1925 3103 
Q 1469 3103 1208 2742 
Q 947 2381 947 1747 
z
" id="DejaVuSans-64" transform="scale(0.015625)"/>
       <path d="M 3597 1894 
L 3597 1613 
L 953 1613 
Q 991 1019 1311 708 
Q 1631 397 2203 397 
Q 2534 397 2845 478 
Q 3156 559 3463 722 
L 3463 178 
Q 3153 47 2828 -22 
Q 2503 -91 2169 -91 
Q 1331 -91 842 396 
Q 353 884 353 1716 
Q 353 2575 817 3079 
Q 1281 3584 2069 3584 
Q 2775 3584 3186 3129 
Q 3597 2675 3597 1894 
z
M 3022 2063 
Q 3016 2534 2758 2815 
Q 2500 3097 2075 3097 
Q 1594 3097 1305 2825 
Q 1016 2553 972 2059 
L 3022 2063 
z
" id="DejaVuSans-65" transform="scale(0.015625)"/>
       <path d="M 1159 525 
L 1159 -1331 
L 581 -1331 
L 581 3500 
L 1159 3500 
L 1159 2969 
Q 1341 3281 1617 3432 
Q 1894 3584 2278 3584 
Q 2916 3584 3314 3078 
Q 3713 2572 3713 1747 
Q 3713 922 3314 415 
Q 2916 -91 2278 -91 
Q 1894 -91 1617 61 
Q 1341 213 1159 525 
z
M 3116 1747 
Q 3116 2381 2855 2742 
Q 2594 3103 2138 3103 
Q 1681 3103 1420 2742 
Q 1159 2381 1159 1747 
Q 1159 1113 1420 752 
Q 1681 391 2138 391 
Q 2594 391 2855 752 
Q 3116 1113 3116 1747 
z
" id="DejaVuSans-70" transform="scale(0.015625)"/>
       <path d="M 603 3500 
L 1178 3500 
L 1178 0 
L 603 0 
L 603 3500 
z
M 603 4863 
L 1178 4863 
L 1178 4134 
L 603 4134 
L 603 4863 
z
" id="DejaVuSans-69" transform="scale(0.015625)"/>
       <path d="M 2834 3397 
L 2834 2853 
Q 2591 2978 2328 3040 
Q 2066 3103 1784 3103 
Q 1356 3103 1142 2972 
Q 928 2841 928 2578 
Q 928 2378 1081 2264 
Q 1234 2150 1697 2047 
L 1894 2003 
Q 2506 1872 2764 1633 
Q 3022 1394 3022 966 
Q 3022 478 2636 193 
Q 2250 -91 1575 -91 
Q 1294 -91 989 -36 
Q 684 19 347 128 
L 347 722 
Q 666 556 975 473 
Q 1284 391 1588 391 
Q 1994 391 2212 530 
Q 2431 669 2431 922 
Q 2431 1156 2273 1281 
Q 2116 1406 1581 1522 
L 1381 1569 
Q 847 1681 609 1914 
Q 372 2147 372 2553 
Q 372 3047 722 3315 
Q 1072 3584 1716 3584 
Q 2034 3584 2315 3537 
Q 2597 3491 2834 3397 
z
" id="DejaVuSans-73" transform="scale(0.015625)"/>
       <path d="M 1959 3097 
Q 1497 3097 1228 2736 
Q 959 2375 959 1747 
Q 959 1119 1226 758 
Q 1494 397 1959 397 
Q 2419 397 2687 759 
Q 2956 1122 2956 1747 
Q 2956 2369 2687 2733 
Q 2419 3097 1959 3097 
z
M 1959 3584 
Q 2709 3584 3137 3096 
Q 3566 2609 3566 1747 
Q 3566 888 3137 398 
Q 2709 -91 1959 -91 
Q 1206 -91 779 398 
Q 353 888 353 1747 
Q 353 2609 779 3096 
Q 1206 3584 1959 3584 
z
M 2394 5119 
L 3016 5119 
L 1997 3944 
L 1519 3944 
L 2394 5119 
z
" id="DejaVuSans-f3" transform="scale(0.015625)"/>
       <path d="M 1959 3097 
Q 1497 3097 1228 2736 
Q 959 2375 959 1747 
Q 959 1119 1226 758 
Q 1494 397 1959 397 
Q 2419 397 2687 759 
Q 2956 1122 2956 1747 
Q 2956 2369 2687 2733 
Q 2419 3097 1959 3097 
z
M 1959 3584 
Q 2709 3584 3137 3096 
Q 3566 2609 3566 1747 
Q 3566 888 3137 398 
Q 2709 -91 1959 -91 
Q 1206 -91 779 398 
Q 353 888 353 1747 
Q 353 2609 779 3096 
Q 1206 3584 1959 3584 
z
" id="DejaVuSans-6f" transform="scale(0.015625)"/>
      </defs>
      <use xlink:href="#DejaVuSans-4e"/>
      <use x="74.804688" xlink:href="#DejaVuSans-ba"/>
      <use x="121.923828" xlink:href="#DejaVuSans-20"/>
      <use x="153.710938" xlink:href="#DejaVuSans-64"/>
      <use x="217.1875" xlink:href="#DejaVuSans-65"/>
      <use x="278.710938" xlink:href="#DejaVuSans-20"/>
      <use x="310.498047" xlink:href="#DejaVuSans-65"/>
      <use x="372.021484" xlink:href="#DejaVuSans-70"/>
      <use x="435.498047" xlink:href="#DejaVuSans-69"/>
      <use x="463.28125" xlink:href="#DejaVuSans-73"/>
      <use x="515.380859" xlink:href="#DejaVuSans-f3"/>
      <use x="576.5625" xlink:href="#DejaVuSans-64"/>
      <use x="640.039062" xlink:href="#DejaVuSans-69"/>
      <use x="667.822266" xlink:href="#DejaVuSans-6f"/>
      <use x="729.003906" xlink:href="#DejaVuSans-73"/>
     </g>
    </g>
   </g>
   <g id="matplotlib.axis_2">
    <g id="ytick_1">
     <g id="line2d_8">
      <defs>
       <path d="M 0 0 
L -3.5 0 
" id="m9c248bd0f3" style="stroke:#000000;stroke-width:0.8;"/>
      </defs>
      <g>
       <use style="stroke:#000000;stroke-width:0.8;" x="74.953125" xlink:href="#m9c248bd0f3" y="665.28"/>
      </g>
     </g>
     <g id="text_9">
      <!-- 0.0 -->
      <g transform="translate(28.195312 674.778047)scale(0.25 -0.25)">
       <defs>
        <path d="M 684 794 
L 1344 794 
L 1344 0 
L 684 0 
L 684 794 
z
" id="DejaVuSans-2e" transform="scale(0.015625)"/>
       </defs>
       <use xlink:href="#DejaVuSans-30"/>
       <use x="63.623047" xlink:href="#DejaVuSans-2e"/>
       <use x="95.410156" xlink:href="#DejaVuSans-30"/>
      </g>
     </g>
    </g>
    <g id="ytick_2">
     <g id="line2d_9">
      <g>
       <use style="stroke:#000000;stroke-width:0.8;" x="74.953125" xlink:href="#m9c248bd0f3" y="538.56"/>
      </g>
     </g>
     <g id="text_10">
      <!-- 0.2 -->
      <g transform="translate(28.195312 548.058047)scale(0.25 -0.25)">
       <use xlink:href="#DejaVuSans-30"/>
       <use x="63.623047" xlink:href="#DejaVuSans-2e"/>
       <use x="95.410156" xlink:href="#DejaVuSans-32"/>
      </g>
     </g>
    </g>
    <g id="ytick_3">
     <g id="line2d_10">
      <g>
       <use style="stroke:#000000;stroke-width:0.8;" x="74.953125" xlink:href="#m9c248bd0f3" y="411.84"/>
      </g>
     </g>
     <g id="text_11">
      <!-- 0.4 -->
      <g transform="translate(28.195312 421.338047)scale(0.25 -0.25)">
       <defs>
        <path d="M 2419 4116 
L 825 1625 
L 2419 1625 
L 2419 4116 
z
M 2253 4666 
L 3047 4666 
L 3047 1625 
L 3713 1625 
L 3713 1100 
L 3047 1100 
L 3047 0 
L 2419 0 
L 2419 1100 
L 313 1100 
L 313 1709 
L 2253 4666 
z
" id="DejaVuSans-34" transform="scale(0.015625)"/>
       </defs>
       <use xlink:href="#DejaVuSans-30"/>
       <use x="63.623047" xlink:href="#DejaVuSans-2e"/>
       <use x="95.410156" xlink:href="#DejaVuSans-34"/>
      </g>
     </g>
    </g>
    <g id="ytick_4">
     <g id="line2d_11">
      <g>
       <use style="stroke:#000000;stroke-width:0.8;" x="74.953125" xlink:href="#m9c248bd0f3" y="285.12"/>
      </g>
     </g>
     <g id="text_12">
      <!-- 0.6 -->
      <g transform="translate(28.195312 294.618047)scale(0.25 -0.25)">
       <defs>
        <path d="M 2113 2584 
Q 1688 2584 1439 2293 
Q 1191 2003 1191 1497 
Q 1191 994 1439 701 
Q 1688 409 2113 409 
Q 2538 409 2786 701 
Q 3034 994 3034 1497 
Q 3034 2003 2786 2293 
Q 2538 2584 2113 2584 
z
M 3366 4563 
L 3366 3988 
Q 3128 4100 2886 4159 
Q 2644 4219 2406 4219 
Q 1781 4219 1451 3797 
Q 1122 3375 1075 2522 
Q 1259 2794 1537 2939 
Q 1816 3084 2150 3084 
Q 2853 3084 3261 2657 
Q 3669 2231 3669 1497 
Q 3669 778 3244 343 
Q 2819 -91 2113 -91 
Q 1303 -91 875 529 
Q 447 1150 447 2328 
Q 447 3434 972 4092 
Q 1497 4750 2381 4750 
Q 2619 4750 2861 4703 
Q 3103 4656 3366 4563 
z
" id="DejaVuSans-36" transform="scale(0.015625)"/>
       </defs>
       <use xlink:href="#DejaVuSans-30"/>
       <use x="63.623047" xlink:href="#DejaVuSans-2e"/>
       <use x="95.410156" xlink:href="#DejaVuSans-36"/>
      </g>
     </g>
    </g>
    <g id="ytick_5">
     <g id="line2d_12">
      <g>
       <use style="stroke:#000000;stroke-width:0.8;" x="74.953125" xlink:href="#m9c248bd0f3" y="158.4"/>
      </g>
     </g>
     <g id="text_13">
      <!-- 0.8 -->
      <g transform="translate(28.195312 167.898047)scale(0.25 -0.25)">
       <defs>
        <path d="M 2034 2216 
Q 1584 2216 1326 1975 
Q 1069 1734 1069 1313 
Q 1069 891 1326 650 
Q 1584 409 2034 409 
Q 2484 409 2743 651 
Q 3003 894 3003 1313 
Q 3003 1734 2745 1975 
Q 2488 2216 2034 2216 
z
M 1403 2484 
Q 997 2584 770 2862 
Q 544 3141 544 3541 
Q 544 4100 942 4425 
Q 1341 4750 2034 4750 
Q 2731 4750 3128 4425 
Q 3525 4100 3525 3541 
Q 3525 3141 3298 2862 
Q 3072 2584 2669 2484 
Q 3125 2378 3379 2068 
Q 3634 1759 3634 1313 
Q 3634 634 3220 271 
Q 2806 -91 2034 -91 
Q 1263 -91 848 271 
Q 434 634 434 1313 
Q 434 1759 690 2068 
Q 947 2378 1403 2484 
z
M 1172 3481 
Q 1172 3119 1398 2916 
Q 1625 2713 2034 2713 
Q 2441 2713 2670 2916 
Q 2900 3119 2900 3481 
Q 2900 3844 2670 4047 
Q 2441 4250 2034 4250 
Q 1625 4250 1398 4047 
Q 1172 3844 1172 3481 
z
" id="DejaVuSans-38" transform="scale(0.015625)"/>
       </defs>
       <use xlink:href="#DejaVuSans-30"/>
       <use x="63.623047" xlink:href="#DejaVuSans-2e"/>
       <use x="95.410156" xlink:href="#DejaVuSans-38"/>
      </g>
     </g>
    </g>
    <g id="ytick_6">
     <g id="line2d_13">
      <g>
       <use style="stroke:#000000;stroke-width:0.8;" x="74.953125" xlink:href="#m9c248bd0f3" y="31.68"/>
      </g>
     </g>
     <g id="text_14">
      <!-- 1.0 -->
      <g transform="translate(28.195312 41.178047)scale(0.25 -0.25)">
       <use xlink:href="#DejaVuSans-31"/>
       <use x="63.623047" xlink:href="#DejaVuSans-2e"/>
       <use x="95.410156" xlink:href="#DejaVuSans-30"/>
      </g>
     </g>
    </g>
    <g id="text_15">
     <!-- Taxa de sucesso -->
     <g transform="translate(18.996094 434.173203)rotate(-90)scale(0.25 -0.25)">
      <defs>
       <path d="M -19 4666 
L 3928 4666 
L 3928 4134 
L 2272 4134 
L 2272 0 
L 1638 0 
L 1638 4134 
L -19 4134 
L -19 4666 
z
" id="DejaVuSans-54" transform="scale(0.015625)"/>
       <path d="M 2194 1759 
Q 1497 1759 1228 1600 
Q 959 1441 959 1056 
Q 959 750 1161 570 
Q 1363 391 1709 391 
Q 2188 391 2477 730 
Q 2766 1069 2766 1631 
L 2766 1759 
L 2194 1759 
z
M 3341 1997 
L 3341 0 
L 2766 0 
L 2766 531 
Q 2569 213 2275 61 
Q 1981 -91 1556 -91 
Q 1019 -91 701 211 
Q 384 513 384 1019 
Q 384 1609 779 1909 
Q 1175 2209 1959 2209 
L 2766 2209 
L 2766 2266 
Q 2766 2663 2505 2880 
Q 2244 3097 1772 3097 
Q 1472 3097 1187 3025 
Q 903 2953 641 2809 
L 641 3341 
Q 956 3463 1253 3523 
Q 1550 3584 1831 3584 
Q 2591 3584 2966 3190 
Q 3341 2797 3341 1997 
z
" id="DejaVuSans-61" transform="scale(0.015625)"/>
       <path d="M 3513 3500 
L 2247 1797 
L 3578 0 
L 2900 0 
L 1881 1375 
L 863 0 
L 184 0 
L 1544 1831 
L 300 3500 
L 978 3500 
L 1906 2253 
L 2834 3500 
L 3513 3500 
z
" id="DejaVuSans-78" transform="scale(0.015625)"/>
       <path d="M 544 1381 
L 544 3500 
L 1119 3500 
L 1119 1403 
Q 1119 906 1312 657 
Q 1506 409 1894 409 
Q 2359 409 2629 706 
Q 2900 1003 2900 1516 
L 2900 3500 
L 3475 3500 
L 3475 0 
L 2900 0 
L 2900 538 
Q 2691 219 2414 64 
Q 2138 -91 1772 -91 
Q 1169 -91 856 284 
Q 544 659 544 1381 
z
M 1991 3584 
L 1991 3584 
z
" id="DejaVuSans-75" transform="scale(0.015625)"/>
       <path d="M 3122 3366 
L 3122 2828 
Q 2878 2963 2633 3030 
Q 2388 3097 2138 3097 
Q 1578 3097 1268 2742 
Q 959 2388 959 1747 
Q 959 1106 1268 751 
Q 1578 397 2138 397 
Q 2388 397 2633 464 
Q 2878 531 3122 666 
L 3122 134 
Q 2881 22 2623 -34 
Q 2366 -91 2075 -91 
Q 1284 -91 818 406 
Q 353 903 353 1747 
Q 353 2603 823 3093 
Q 1294 3584 2113 3584 
Q 2378 3584 2631 3529 
Q 2884 3475 3122 3366 
z
" id="DejaVuSans-63" transform="scale(0.015625)"/>
      </defs>
      <use xlink:href="#DejaVuSans-54"/>
      <use x="44.583984" xlink:href="#DejaVuSans-61"/>
      <use x="105.863281" xlink:href="#DejaVuSans-78"/>
      <use x="165.042969" xlink:href="#DejaVuSans-61"/>
      <use x="226.322266" xlink:href="#DejaVuSans-20"/>
      <use x="258.109375" xlink:href="#DejaVuSans-64"/>
      <use x="321.585938" xlink:href="#DejaVuSans-65"/>
      <use x="383.109375" xlink:href="#DejaVuSans-20"/>
      <use x="414.896484" xlink:href="#DejaVuSans-73"/>
      <use x="466.996094" xlink:href="#DejaVuSans-75"/>
      <use x="530.375" xlink:href="#DejaVuSans-63"/>
      <use x="585.355469" xlink:href="#DejaVuSans-65"/>
      <use x="646.878906" xlink:href="#DejaVuSans-73"/>
      <use x="698.978516" xlink:href="#DejaVuSans-73"/>
      <use x="751.078125" xlink:href="#DejaVuSans-6f"/>
     </g>
    </g>
   </g>
   <g id="line2d_14">
    <path clip-path="url(#p1feb9e0f22)" d="M 155.384791 116.16 
L 197.941228 116.16 
L 240.497664 116.16 
L 283.054101 116.16 
L 325.610538 116.16 
L 368.166975 116.16 
L 410.723412 116.16 
L 453.279849 116.16 
L 495.836285 116.16 
L 538.392722 116.16 
L 580.949159 116.16 
L 623.505596 116.16 
L 666.062033 116.16 
L 708.61847 116.16 
L 751.174907 116.16 
L 793.731343 116.16 
L 836.28778 116.16 
L 878.844217 116.16 
L 921.400654 116.16 
L 963.957091 116.16 
L 1006.513528 116.16 
L 1049.069965 116.16 
L 1091.626401 116.16 
L 1134.182838 116.16 
L 1176.739275 116.16 
L 1219.295712 116.16 
L 1261.852149 116.16 
L 1304.408586 116.16 
L 1346.965022 116.16 
L 1389.521459 116.16 
" style="fill:none;stroke:#4b0082;stroke-linecap:square;stroke-width:3;"/>
   </g>
   <g id="patch_33">
    <path d="M 74.953125 665.28 
L 74.953125 -0 
" style="fill:none;stroke:#000000;stroke-linecap:square;stroke-linejoin:miter;stroke-width:0.8;"/>
   </g>
   <g id="patch_34">
    <path d="M 74.953125 665.28 
L 1469.953125 665.28 
" style="fill:none;stroke:#000000;stroke-linecap:square;stroke-linejoin:miter;stroke-width:0.8;"/>
   </g>
  </g>
 </g>
 <defs>
  <clipPath id="p1feb9e0f22">
   <rect height="665.28" width="1395" x="74.953125" y="-0"/>
  </clipPath>
 </defs>
</svg>
